<?xml version="1.0" standalone="no"?>
<!DOCTYPE svg PUBLIC "-//W3C//DTD SVG 20010904//EN"
 "http://www.w3.org/TR/2001/REC-SVG-20010904/DTD/svg10.dtd">
<svg version="1.0" xmlns="http://www.w3.org/2000/svg"
 width="512.000000pt" height="512.000000pt" viewBox="0 0 512.000000 512.000000"
 preserveAspectRatio="xMidYMid meet">
<metadata>
Created by potrace 1.11, written by Peter Selinger 2001-2013
</metadata>
<g transform="translate(0.000000,512.000000) scale(0.100000,-0.100000)"
fill="#000000" stroke="none">
<path d="M2305 4010 c-10 -11 -14 -20 -9 -20 5 0 15 9 22 20 7 11 11 20 9 20
-2 0 -12 -9 -22 -20z"/>
<path d="M2063 3875 c-26 -11 -28 -23 -10 -45 16 -20 74 -22 81 -3 5 12 10 11
36 -2 26 -13 29 -13 25 0 -16 51 -16 50 -26 35 -8 -12 -10 -10 -6 8 3 12 1 22
-4 22 -5 0 -9 -4 -9 -10 0 -10 -51 -10 -60 0 -3 3 -15 1 -27 -5z"/>
<path d="M2344 3880 c-6 -6 -31 -12 -56 -13 -27 -1 -52 -9 -64 -20 -16 -16
-16 -17 -1 -12 12 5 17 2 17 -9 0 -18 11 -21 26 -6 6 6 23 13 37 16 21 3 27 0
27 -13 1 -16 2 -16 15 1 8 11 15 15 15 8 0 -18 70 -27 81 -11 5 9 9 10 9 2 0
-7 15 -10 40 -9 47 2 56 9 35 26 -11 9 -15 9 -15 1 0 -7 -5 -9 -10 -6 -6 4 -4
12 5 21 8 9 15 21 14 27 0 8 -2 8 -6 -1 -2 -6 -8 -10 -13 -7 -4 3 -19 1 -32
-4 -13 -5 -33 -5 -47 1 -19 7 -27 5 -33 -6 -7 -13 -12 -13 -22 -3 -8 6 -12 15
-9 20 6 10 -1 9 -13 -3z"/>
<path d="M2338 3773 c6 -2 18 -2 25 0 6 3 1 5 -13 5 -14 0 -19 -2 -12 -5z"/>
<path d="M2159 3723 c-13 -16 -12 -17 4 -4 9 7 17 15 17 17 0 8 -8 3 -21 -13z"/>
<path d="M2228 3733 c7 -3 16 -2 19 1 4 3 -2 6 -13 5 -11 0 -14 -3 -6 -6z"/>
<path d="M2415 3710 c-3 -5 -1 -10 4 -10 6 0 11 5 11 10 0 6 -2 10 -4 10 -3 0
-8 -4 -11 -10z"/>
<path d="M433 3609 c11 -83 119 -157 212 -147 84 10 165 90 165 163 l0 25
-132 -1 c-73 0 -127 -3 -120 -6 6 -2 12 -9 12 -15 0 -6 -7 -8 -14 -5 -10 4
-13 1 -10 -8 4 -10 -1 -13 -18 -11 -33 3 -50 16 -44 32 4 10 -3 14 -26 14 -30
0 -31 -1 -25 -41z"/>
<path d="M4342 3628 c-24 -27 -45 -76 -36 -89 8 -13 31 -11 67 7 l32 17 -32
-36 c-86 -98 -48 -216 70 -217 l38 0 -16 -30 c-21 -41 -19 -85 8 -115 l22 -25
42 21 c23 11 54 19 70 17 27 -4 26 -5 -13 -16 -57 -17 -86 -51 -91 -109 -6
-58 18 -95 72 -113 65 -22 134 32 214 167 46 77 59 129 42 161 -25 46 -182 89
-268 73 l-41 -8 16 34 c16 33 16 33 -20 71 -38 39 -58 72 -58 94 0 7 9 -1 19
-18 42 -69 122 -105 185 -84 20 6 50 23 66 37 45 37 41 73 -16 133 l-47 50
-152 0 c-144 0 -153 -1 -173 -22z m377 -450 c9 -24 4 -48 -9 -48 -4 0 -16 8
-28 18 -20 17 -20 20 -4 35 22 23 31 21 41 -5z"/>
<path d="M405 3471 c-43 -19 -85 -93 -85 -150 0 -45 -20 -49 -21 -4 -1 34 -2
35 -9 13 -7 -21 -8 -19 -9 18 -1 48 -15 54 -49 22 -40 -37 -20 -119 44 -184
36 -36 119 -76 159 -76 30 -1 29 -1 -8 -15 -71 -25 -222 -137 -258 -192 -10
-15 -19 -46 -19 -67 0 -35 7 -46 53 -91 73 -71 154 -109 234 -109 57 -1 65 2
94 30 36 36 50 105 29 144 -10 19 -17 21 -55 16 -29 -5 -55 -2 -79 8 -44 18
-48 29 -6 14 135 -46 240 159 122 238 l-33 23 44 19 c66 29 100 80 105 156 4
77 -24 130 -86 164 -45 25 -134 37 -167 23z m36 -93 c6 -23 4 -28 -11 -28 -24
0 -42 24 -34 44 10 25 36 15 45 -16z m-87 -489 c-3 -5 1 -9 8 -9 7 -1 1 -8
-15 -16 -32 -18 -47 -11 -47 20 0 35 20 49 42 30 9 -9 15 -21 12 -25z"/>
<path d="M1871 3212 c-12 -49 -21 -97 -21 -106 0 -20 1 -20 -46 0 -63 26 -163
22 -229 -10 -30 -15 -60 -37 -66 -48 -11 -20 -9 -21 28 -15 108 18 177 -117
106 -209 l-28 -37 38 6 c30 5 42 1 63 -16 34 -29 42 -92 19 -137 -25 -48 -6
-60 42 -28 45 30 124 71 127 66 1 -2 17 -27 35 -55 43 -69 135 -153 218 -199
l67 -38 -30 -9 c-56 -18 -67 -36 -61 -98 6 -63 35 -128 71 -157 25 -19 25 -20
7 -36 -16 -15 -25 -16 -60 -6 -23 6 -71 10 -107 9 -62 -2 -66 -1 -102 34 -40
39 -65 45 -94 23 -29 -22 -78 -88 -72 -97 2 -5 42 -20 87 -35 66 -22 105 -28
197 -30 63 -2 122 -5 132 -6 21 -4 216 176 256 237 l30 46 19 -24 c28 -36 113
-98 169 -123 l51 -22 17 -99 c21 -123 36 -246 31 -252 -3 -2 -11 2 -20 9 -22
18 -26 9 -15 -31 5 -19 34 -152 64 -297 82 -389 111 -483 157 -497 12 -4 36
-21 52 -39 l30 -31 -23 34 -23 33 44 42 c25 22 51 57 59 76 8 19 22 41 33 48
13 10 17 21 12 42 -8 35 13 120 30 120 19 0 45 34 45 60 0 13 -9 34 -21 46
-16 17 -19 29 -14 56 17 88 44 69 72 -51 21 -90 26 -437 7 -462 -6 -8 -14 -27
-16 -42 l-5 -28 23 22 c34 32 44 78 44 199 0 203 -45 422 -124 606 -24 56 -47
117 -51 135 -4 19 -20 79 -37 134 -35 121 -51 247 -43 336 l7 66 49 12 c28 7
49 15 47 17 -2 2 -47 0 -100 -5 -417 -35 -788 143 -873 419 -7 23 -6 22 20 -8
110 -131 399 -146 504 -26 98 111 -5 373 -178 452 -46 21 -64 24 -130 20 -84
-5 -135 -26 -197 -80 l-37 -33 7 40 c4 22 10 49 12 61 5 18 -2 22 -61 32 -56
11 -139 37 -207 66 -13 6 -19 -7 -37 -82z m-20 -135 c113 -47 209 -144 209
-210 0 -44 -33 -34 -80 26 -89 112 -186 168 -304 175 -72 4 -77 6 -55 18 40
22 165 17 230 -9z m791 -116 c31 -64 36 -165 10 -207 -25 -39 -82 -66 -152
-72 l-55 -4 45 24 c47 26 95 84 106 131 5 23 3 27 -15 27 -35 0 -83 29 -79 48
2 13 16 18 51 20 56 4 58 12 22 90 -14 30 -25 57 -25 60 1 15 71 -74 92 -117z
m-708 -92 c55 -20 104 -65 89 -80 -5 -5 -35 2 -68 15 -76 31 -178 49 -230 42
-34 -5 -37 -4 -20 6 70 42 148 48 229 17z m341 -4 c0 -22 -31 -33 -48 -16 -7
7 -6 15 3 26 17 21 45 15 45 -10z m-285 -130 c0 -8 -54 -32 -145 -64 l-90 -32
29 30 c42 44 103 71 159 71 26 0 47 -2 47 -5z m1014 -1702 c-8 -43 -31 -93
-43 -93 -4 0 -13 11 -19 24 -9 21 -6 29 26 65 20 23 38 41 40 41 1 0 0 -17 -4
-37z"/>
<path d="M3302 3264 c-60 -42 -104 -206 -85 -311 24 -127 60 -170 133 -158 23
4 52 19 70 35 29 27 30 32 28 102 l-2 73 -3 -71 c-3 -56 -8 -76 -23 -89 -22
-20 -39 -13 -21 8 6 8 14 35 17 61 6 38 4 46 -9 46 -9 0 -24 11 -33 25 -21 32
-11 59 17 52 20 -5 21 -3 16 31 -4 20 -17 58 -30 84 -13 26 -20 48 -16 48 16
0 44 -54 62 -119 15 -55 17 -59 12 -21 -9 69 -45 171 -71 197 -27 27 -33 28
-62 7z m-2 -240 c0 -8 -10 -14 -25 -14 -27 0 -33 18 -13 38 14 14 38 -2 38
-24z"/>
<path d="M3505 3240 c-33 -17 -51 -28 -40 -24 88 28 113 34 147 34 21 0 38 -4
38 -10 0 -5 -10 -10 -22 -10 -28 0 -138 -51 -155 -72 -8 -9 -10 -32 -6 -66 l6
-52 51 -1 c43 0 102 -14 86 -19 -3 -1 -30 -7 -60 -13 -45 -10 -56 -16 -58 -35
-5 -33 17 -90 36 -97 9 -3 28 -15 42 -26 l25 -20 -32 6 c-49 10 -40 -10 12
-31 54 -20 66 -13 42 27 -37 65 -13 149 44 149 31 0 40 17 14 27 -21 7 -45 55
-45 88 0 59 50 115 103 115 38 0 31 20 -14 42 -57 28 -143 23 -214 -12z"/>
<path d="M4814 2960 c-23 -9 -54 -47 -54 -66 0 -6 11 -17 25 -24 37 -20 25
-21 -25 -4 -50 18 -137 14 -183 -7 -55 -25 -76 -111 -36 -147 42 -40 125 -35
219 12 34 17 47 20 47 10 0 -7 -3 -12 -6 -10 -3 2 -14 -4 -24 -14 -17 -17 -16
-19 18 -49 54 -47 117 -38 150 24 14 25 17 48 13 111 -5 91 -25 137 -68 159
-32 17 -45 18 -76 5z"/>
<path d="M3237 2728 c-21 -11 -23 -61 -3 -77 11 -10 17 -7 30 11 31 44 13 89
-27 66z"/>
<path d="M2980 2660 c0 -24 36 -63 53 -57 17 5 21 45 7 63 -19 22 -60 18 -60
-6z"/>
<path d="M1400 2503 c-14 -2 -80 -15 -148 -28 -67 -13 -130 -21 -139 -18 -12
5 -14 3 -8 -7 5 -9 4 -11 -4 -6 -13 8 -117 -25 -171 -54 l-35 -19 48 -1 c26 0
58 -7 71 -15 21 -14 29 -12 114 24 142 61 158 65 195 50 46 -18 79 -46 132
-112 l46 -57 47 31 c140 94 176 172 96 205 -31 13 -180 18 -244 7z"/>
<path d="M1080 2306 c-19 -7 -80 -37 -135 -68 -55 -30 -164 -90 -243 -134 -79
-43 -138 -80 -132 -82 7 -3 1 -16 -16 -33 -15 -16 -25 -31 -23 -33 3 -3 29 6
58 19 29 14 60 25 69 25 29 -1 112 -69 142 -117 37 -58 47 -107 31 -147 -34
-84 -20 -87 74 -16 71 54 92 58 174 39 61 -14 145 -56 177 -90 l28 -29 -18
-56 c-10 -31 -15 -58 -12 -62 14 -14 64 39 99 106 37 71 39 73 120 111 84 41
153 61 268 81 61 11 73 9 152 -15 65 -19 85 -29 80 -40 -3 -10 -19 -15 -43
-15 -89 0 -210 -66 -210 -114 0 -22 55 -116 68 -116 4 0 16 -7 27 -15 18 -15
17 -17 -29 -64 -46 -47 -49 -48 -75 -35 -59 31 -224 4 -240 -39 -16 -42 25
-143 65 -161 19 -9 19 -11 -16 -82 -28 -58 -40 -73 -57 -74 -27 0 -84 -49
-114 -96 -32 -53 -21 -78 51 -111 49 -23 60 -33 61 -53 0 -14 6 -43 12 -64 11
-37 11 -41 -15 -67 -43 -43 -37 -66 25 -94 28 -14 62 -25 74 -25 13 0 50 -20
84 -45 34 -25 65 -45 70 -45 5 0 9 -13 9 -30 0 -39 25 -51 102 -48 79 3 195
-23 213 -48 12 -17 17 -17 47 -6 46 16 242 16 268 0 16 -10 24 -10 38 0 23 17
27 18 112 37 187 42 362 173 274 206 -17 6 -21 4 -20 -9 2 -24 -97 -87 -189
-121 -114 -41 -214 -55 -353 -48 -273 13 -488 119 -590 289 -58 98 -76 161
-76 273 0 116 22 183 96 291 39 59 43 62 56 43 30 -43 122 -6 122 50 0 14 -6
36 -14 47 -14 19 -11 23 28 60 40 36 46 38 69 26 66 -33 134 58 96 129 -6 12
-24 26 -39 33 l-29 12 39 62 c22 34 43 62 48 62 4 0 16 -15 27 -32 24 -43 32
-48 82 -48 34 0 50 7 79 32 65 57 82 134 43 198 l-22 35 -12 -48 c-13 -49 -48
-97 -73 -97 -8 0 -27 9 -43 21 -16 11 -73 35 -126 53 -118 40 -300 114 -383
156 -57 29 -64 30 -84 16 -15 -9 -39 -53 -66 -123 -48 -119 -90 -207 -114
-238 -12 -14 -10 -6 5 30 78 189 91 370 28 390 -39 13 -155 -57 -304 -182 -98
-82 -166 -133 -178 -133 -6 0 64 75 155 168 209 213 262 298 210 345 -23 21
-110 22 -162 3z"/>
<path d="M1612 2241 c-34 -10 -65 -21 -68 -23 -6 -7 89 -88 144 -122 l43 -27
14 35 c8 20 15 58 15 85 0 75 -29 85 -148 52z"/>
<path d="M2506 1737 c-14 -18 -37 -59 -52 -91 -14 -31 -33 -60 -41 -63 -8 -3
-45 4 -82 16 -97 31 -156 26 -225 -22 -71 -50 -134 -199 -151 -355 -7 -58 -8
-62 -19 -40 -16 32 -59 36 -80 6 -20 -28 -20 -57 -2 -84 14 -19 11 -24 -31
-65 -61 -58 -83 -110 -90 -213 -5 -78 -4 -89 21 -140 33 -67 88 -116 181 -162
113 -55 181 -69 340 -68 149 0 218 13 349 67 l59 24 -179 6 c-225 7 -361 37
-465 103 -70 44 -111 133 -88 191 l11 28 13 -38 c18 -51 37 -71 93 -95 85 -36
89 -36 94 -3 4 25 0 31 -29 45 -36 17 -53 58 -35 86 7 12 6 32 -5 71 -27 99
-32 133 -33 232 0 75 3 97 13 97 22 0 47 34 47 62 0 14 -8 36 -19 49 -18 22
-18 25 -1 75 34 97 64 124 141 124 137 0 184 -102 160 -348 -12 -124 -39 -270
-60 -324 -9 -25 -8 -27 18 -33 16 -3 46 -23 66 -43 22 -21 33 -28 27 -16 -10
19 -7 21 59 30 l70 10 23 -41 c31 -52 53 -71 102 -89 l40 -14 -4 31 c-3 17
-16 40 -29 50 l-24 19 20 22 c42 44 12 96 -55 96 -25 0 -33 5 -38 24 -3 13 -9
31 -12 40 -4 11 0 16 13 16 10 0 24 5 31 12 17 17 15 79 -4 106 -16 23 -48 29
-59 12 -11 -18 -23 -11 -28 18 -41 233 -50 300 -50 407 0 85 4 132 15 163 9
23 14 42 12 42 -1 0 -14 -15 -28 -33z"/>
<path d="M2636 1281 c-16 -17 -16 -20 0 -35 9 -9 21 -15 28 -13 17 5 19 42 3
55 -11 9 -18 8 -31 -7z"/>
<path d="M2116 1091 c-11 -18 6 -42 28 -39 29 4 29 42 -1 46 -11 2 -24 -1 -27
-7z"/>
<path d="M1686 1001 c-19 -21 -13 -47 13 -54 40 -10 67 33 39 61 -17 17 -32
15 -52 -7z"/>
<path d="M3100 820 l-25 -20 46 0 c51 0 64 7 48 27 -16 18 -40 16 -69 -7z"/>
<path d="M2840 735 c0 -23 4 -25 42 -25 l42 0 -34 25 c-19 14 -38 25 -42 25
-4 0 -8 -11 -8 -25z"/>
<path d="M2990 749 c0 -5 5 -7 10 -4 6 3 10 8 10 11 0 2 -4 4 -10 4 -5 0 -10
-5 -10 -11z"/>
<path d="M2258 720 c-4 -24 -1 -30 13 -30 10 0 26 -3 36 -7 17 -6 17 -5 2 13
-9 10 -19 27 -22 37 -10 27 -24 20 -29 -13z"/>
<path d="M2410 700 c0 -5 5 -10 11 -10 5 0 7 5 4 10 -3 6 -8 10 -11 10 -2 0
-4 -4 -4 -10z"/>
<path d="M2698 553 c7 -3 16 -2 19 1 4 3 -2 6 -13 5 -11 0 -14 -3 -6 -6z"/>
</g>
</svg>
