<?xml version="1.0" standalone="no"?>
<!DOCTYPE svg PUBLIC "-//W3C//DTD SVG 20010904//EN"
 "http://www.w3.org/TR/2001/REC-SVG-20010904/DTD/svg10.dtd">
<svg version="1.0" xmlns="http://www.w3.org/2000/svg"
 width="512.000000pt" height="512.000000pt" viewBox="0 0 512.000000 512.000000"
 preserveAspectRatio="xMidYMid meet">
<metadata>
Created by potrace 1.11, written by Peter Selinger 2001-2013
</metadata>
<g transform="translate(0.000000,512.000000) scale(0.100000,-0.100000)"
fill="#000000" stroke="none">
<path d="M2608 5085 c-2 -2 -34 -6 -73 -10 -156 -15 -228 -40 -242 -81 -6 -19
-30 -34 -95 -63 -125 -56 -220 -122 -324 -225 -137 -137 -219 -289 -258 -477
-17 -81 -15 -278 3 -336 5 -18 8 -33 5 -33 -13 0 40 -82 72 -109 l36 -32 -17
-60 c-18 -67 -23 -88 -31 -139 -9 -61 -9 -61 -56 -44 -65 23 -160 29 -215 14
-67 -19 -143 -67 -143 -91 0 -16 5 -18 44 -13 122 17 204 -149 123 -246 -37
-44 -34 -52 16 -45 35 5 46 3 65 -15 43 -40 55 -112 27 -160 -8 -14 -14 -36
-15 -50 0 -20 -5 -26 -22 -26 -42 -1 -201 -19 -248 -29 -14 -2 -50 -10 -80
-16 -216 -43 -630 -182 -630 -211 0 -6 21 -9 48 -7 44 2 102 -15 102 -31 0 -4
-15 -14 -32 -21 -81 -33 -405 -245 -394 -257 2 -2 25 10 52 26 58 34 284 149
319 162 39 15 29 4 -17 -20 -72 -37 -152 -82 -164 -91 -6 -5 -44 -27 -85 -50
-41 -23 -99 -55 -129 -72 -100 -55 -116 -67 -97 -67 13 0 8 -9 -20 -37 -50
-48 -31 -53 57 -13 l69 33 51 -33 c123 -79 198 -232 150 -305 -11 -16 -30 -30
-44 -32 -39 -5 -127 -49 -166 -83 -38 -33 -50 -37 -50 -17 0 15 -68 86 -84 89
-32 4 -42 2 -54 -9 -18 -17 -39 -70 -47 -118 -8 -47 -8 -219 0 -255 3 -14 8
-40 11 -59 3 -18 8 -42 10 -52 2 -11 6 -29 9 -42 20 -95 92 -217 127 -217 8 0
20 -10 27 -22 6 -13 9 -15 6 -5 -2 10 -1 16 3 13 5 -3 16 4 25 15 19 21 22 33
8 25 -10 -7 -9 13 2 31 4 6 1 14 -5 16 -10 4 -9 6 1 6 10 1 11 4 3 14 -8 9 -8
17 0 27 8 12 9 12 4 -2 -3 -10 -1 -18 5 -18 6 0 9 -6 7 -12 -3 -7 4 -21 14
-32 10 -11 18 -28 18 -38 0 -10 3 -17 8 -15 4 1 7 -1 7 -4 0 -10 86 -79 98
-79 7 0 5 -5 -3 -10 -8 -5 -10 -10 -4 -10 5 0 15 5 22 12 8 8 12 8 12 1 0 -15
38 -23 45 -9 3 6 3 1 1 -12 -2 -12 0 -20 5 -16 5 3 9 12 9 19 0 16 29 9 43 -9
5 -7 7 -3 5 9 -2 13 4 20 17 23 11 2 16 0 10 -5 -14 -11 -18 -40 -6 -47 5 -4
13 -1 17 5 5 8 3 9 -6 4 -10 -6 -11 -4 -6 11 5 10 9 25 9 33 0 8 9 23 19 33
16 16 19 16 24 3 7 -17 34 -21 34 -4 0 5 -4 8 -9 4 -30 -18 -8 67 23 87 6 5 7
8 1 9 -5 0 1 4 14 8 25 7 42 31 21 31 -6 0 -8 -4 -5 -10 3 -5 0 -10 -8 -10
-10 0 -14 10 -13 29 0 16 4 27 9 24 4 -2 5 -9 2 -14 -4 -5 0 -9 8 -9 23 0 39
-24 25 -38 -9 -9 -8 -16 7 -30 18 -16 18 -16 6 1 -8 9 -11 20 -8 23 10 10 47
-7 47 -22 0 -8 4 -12 10 -9 5 3 10 -2 10 -12 0 -15 2 -16 10 -3 7 11 10 11 10
2 0 -7 4 -11 9 -7 5 3 12 1 16 -4 3 -6 12 -8 20 -4 10 3 15 -1 15 -12 0 -10
-5 -13 -12 -9 -7 5 -8 3 -3 -6 6 -10 12 -7 25 10 l16 22 16 -24 c13 -19 18
-21 30 -10 11 11 10 12 -5 7 -9 -4 -17 -3 -17 3 0 13 56 8 73 -7 8 -6 18 -7
22 -3 5 4 5 -2 1 -13 -5 -15 -4 -17 5 -8 12 12 3 37 -11 28 -4 -3 -13 1 -19 8
-8 11 -6 13 9 12 11 -1 23 -4 26 -8 11 -10 24 -8 24 4 0 5 -5 7 -10 4 -6 -3
-10 -1 -10 5 0 8 7 9 18 5 9 -4 24 -8 32 -10 8 -2 24 -6 35 -10 19 -6 19 -6 2
5 -16 10 -26 14 -57 19 -3 1 2 5 9 10 9 6 22 6 32 0 12 -6 20 -5 25 3 4 6 3 8
-4 4 -6 -3 -13 -2 -17 4 -3 5 3 10 14 10 12 0 21 5 21 11 0 5 -6 7 -12 4 -7
-4 -2 3 12 14 14 11 29 21 33 21 5 0 5 4 2 10 -4 6 1 7 11 3 14 -5 16 -3 11
11 -4 10 0 25 11 36 18 19 18 19 19 -1 1 -11 -2 -17 -8 -14 -5 4 -9 1 -9 -4 0
-6 7 -11 15 -11 8 0 15 -5 15 -12 0 -6 -3 -8 -7 -5 -3 4 -14 0 -24 -9 -9 -8
-26 -17 -36 -18 -10 -2 -18 -12 -19 -24 -1 -18 2 -20 18 -11 10 5 16 14 13 19
-3 5 4 11 15 15 11 3 20 10 20 15 0 18 32 -3 41 -27 12 -32 -12 -79 -45 -87
-54 -13 -156 -127 -156 -173 0 -34 49 -78 104 -94 28 -8 44 -19 44 -28 -1 -19
8 -64 22 -111 14 -47 13 -53 -7 -46 -10 4 -14 4 -11 0 4 -3 -4 -23 -17 -43
-29 -41 -30 -48 -13 -65 23 -22 108 -58 142 -60 21 -2 50 -16 77 -38 24 -19
60 -45 79 -58 42 -29 51 -41 45 -58 -2 -7 4 -21 15 -32 16 -16 30 -19 91 -16
44 2 84 -1 103 -9 17 -7 34 -13 39 -13 50 -3 103 -19 124 -38 30 -28 30 -28
63 -11 31 16 297 14 313 -2 15 -15 27 -14 48 5 15 13 80 31 179 50 27 5 41 10
111 43 25 11 51 21 58 21 6 0 11 4 11 9 0 5 14 14 30 21 17 7 30 16 30 21 0 5
5 9 11 9 21 0 69 64 69 93 0 26 -55 47 -94 36 -76 -22 -226 -32 -226 -15 0 8
-2 8 -8 -1 -7 -12 -27 -11 -177 2 -64 6 -219 37 -255 52 -8 3 -19 7 -25 9 -59
15 -184 90 -185 111 0 6 -8 18 -19 25 -19 14 -38 68 -36 103 1 11 2 33 3 48 1
17 6 26 13 22 6 -4 8 -9 5 -12 -8 -9 23 -63 55 -94 31 -30 66 -48 144 -73 27
-9 61 -28 76 -42 24 -23 28 -24 42 -9 12 12 30 15 73 11 31 -3 60 -9 63 -14
14 -20 41 -19 72 3 18 14 41 23 53 20 12 -2 21 -4 21 -5 0 -1 9 -3 20 -4 17
-2 21 4 23 45 2 29 -2 52 -10 60 -23 24 -60 80 -56 84 2 2 35 7 72 10 38 3 72
8 77 10 4 3 18 -14 30 -37 31 -62 89 -113 146 -128 26 -8 62 -21 79 -31 28
-15 33 -16 47 -2 8 8 34 17 57 19 23 2 46 6 50 9 5 3 19 1 33 -4 18 -7 30 -6
43 4 11 8 15 15 10 15 -5 0 2 9 15 19 16 12 34 17 51 14 19 -4 29 0 37 15 6
11 7 22 4 26 -3 3 -2 6 3 7 5 0 33 2 61 4 55 3 121 31 160 67 32 30 52 103 53
196 0 24 4 31 13 26 10 -6 10 -4 0 7 -16 16 -17 39 -2 39 5 0 7 -5 3 -12 -5
-7 -3 -8 5 -4 7 5 10 15 6 24 -3 9 -3 13 1 9 4 -4 13 -2 21 4 7 6 13 8 13 5 0
-4 10 4 23 18 22 23 25 24 45 10 22 -15 47 -11 36 7 -3 6 5 8 20 5 14 -3 28
-1 30 3 3 3 -13 7 -34 7 -31 0 -37 -2 -28 -13 7 -9 7 -13 0 -13 -6 0 -16 10
-23 21 -8 15 -8 19 0 15 6 -4 11 -2 11 4 0 6 5 8 10 5 9 -5 14 6 12 26 -1 3 6
6 14 6 17 0 18 -9 2 -25 -7 -7 -8 -12 -2 -12 13 0 39 42 36 58 -2 6 1 12 5 12
5 0 15 -21 22 -47 24 -83 68 -134 112 -131 15 2 34 -4 43 -11 10 -9 16 -10 16
-2 0 6 -4 11 -10 11 -15 0 -12 30 4 36 8 3 13 13 11 22 -1 9 3 23 9 31 8 11 8
15 -1 18 -7 3 -13 16 -13 29 0 13 -5 24 -12 24 -6 0 -9 3 -5 6 3 3 1 18 -4 32
-8 22 -8 23 5 13 9 -7 14 -16 13 -19 -3 -11 27 -72 36 -72 5 0 6 -4 3 -9 -3
-5 1 -12 10 -15 9 -4 14 -13 10 -22 -3 -9 -2 -12 5 -9 5 4 19 -4 31 -17 11
-12 25 -22 30 -20 6 1 17 -5 25 -15 8 -10 12 -12 8 -5 -8 16 7 16 24 -1 11 -9
13 -9 7 1 -7 12 10 17 42 13 8 -1 21 4 30 11 14 11 15 11 9 -5 -4 -10 -7 -20
-7 -23 0 -2 -8 -1 -17 2 -14 5 -15 4 -4 -4 16 -12 44 -4 35 9 -3 5 3 9 13 10
10 0 13 3 6 6 -7 2 -13 9 -13 14 0 6 5 7 12 3 6 -4 17 1 24 11 13 17 51 14 40
-4 -3 -5 1 -12 10 -15 16 -6 12 6 -13 36 -13 15 -13 16 6 11 12 -3 21 -9 21
-14 0 -5 6 -9 13 -9 6 1 1 10 -12 20 -16 14 -19 20 -8 20 10 0 13 6 10 19 -3
13 2 21 16 26 13 4 18 12 15 23 -5 14 -4 14 4 2 6 -8 9 -17 6 -21 -2 -4 3 -10
11 -13 8 -3 14 -9 13 -13 -2 -4 7 -18 20 -31 12 -12 20 -27 17 -32 -3 -5 0 -7
8 -4 8 3 17 -2 21 -11 3 -9 10 -13 16 -10 5 3 10 1 10 -4 0 -6 8 -11 18 -11
23 0 55 -33 45 -45 -5 -4 -2 -5 5 -1 7 4 10 12 7 17 -4 5 -1 9 4 9 6 0 11 -4
11 -9 0 -5 10 -7 22 -3 15 4 19 2 13 -7 -6 -10 -3 -11 11 -3 11 5 30 9 44 8
14 -1 34 1 46 5 14 5 24 2 32 -11 7 -12 8 -20 1 -24 -5 -2 -4 -3 3 -2 7 2 12
9 11 15 -4 17 7 13 26 -11 14 -16 20 -18 26 -8 5 8 4 11 -3 6 -6 -3 -16 3 -22
14 -7 13 -17 19 -27 16 -9 -4 -13 -1 -11 6 2 6 14 12 26 13 12 1 30 9 39 17
10 9 26 14 36 13 9 -2 17 1 17 6 0 6 5 7 10 4 6 -3 10 1 10 9 0 9 7 16 15 16
8 0 15 5 15 10 0 6 5 10 11 10 5 0 8 -3 6 -7 -2 -5 4 -16 15 -25 10 -10 18
-14 18 -9 0 6 -4 13 -10 16 -13 8 -13 42 1 51 7 4 9 0 5 -13 -4 -12 -1 -25 9
-33 10 -8 15 -9 15 -1 0 6 -5 11 -11 11 -22 0 4 46 51 91 27 26 46 49 44 52
-3 3 4 8 15 12 12 3 19 10 16 14 -2 5 2 17 10 27 8 10 15 14 15 7 0 -6 -5 -15
-10 -18 -6 -4 -7 -11 -4 -17 4 -6 -6 -21 -21 -34 -16 -13 -23 -24 -17 -24 17
0 53 43 48 57 -3 7 0 15 5 19 6 3 9 15 6 25 -3 11 -1 19 3 19 16 0 21 -19 10
-40 -8 -16 -8 -18 4 -14 8 3 13 16 11 30 -1 13 3 24 9 24 6 0 0 7 -12 16 -25
17 -29 34 -7 34 12 0 11 4 -5 20 -11 11 -20 24 -20 29 0 6 -18 21 -40 34 -22
13 -37 27 -33 31 4 4 0 4 -10 0 -9 -3 -14 -10 -11 -16 8 -13 -26 -49 -40 -41
-6 4 -4 -2 4 -12 12 -15 12 -17 1 -10 -11 6 -13 4 -8 -9 6 -14 3 -17 -9 -12
-13 5 -14 4 -6 -7 9 -11 4 -22 -25 -50 -36 -37 -63 -47 -63 -26 0 6 7 8 16 5
14 -5 15 -4 4 9 -11 13 -10 14 5 9 13 -5 16 -4 11 4 -11 19 18 44 34 29 10
-10 10 -8 1 10 -8 17 -8 22 4 27 8 3 14 9 13 13 -3 13 25 63 35 63 5 0 4 -7
-3 -15 -11 -13 -10 -14 4 -9 10 4 15 13 11 22 -3 8 1 22 8 31 15 17 19 54 6
45 -5 -2 -5 -12 -2 -22 6 -14 4 -15 -9 -5 -8 7 -19 9 -24 5 -4 -4 -2 1 6 12 8
10 23 22 35 27 17 8 16 9 -6 5 -23 -5 -25 -2 -23 24 1 15 5 33 8 39 4 6 -7 24
-24 41 -16 16 -30 33 -30 37 0 14 -53 53 -107 80 -48 23 -67 26 -151 26 -54 0
-104 -2 -112 -4 -21 -6 -91 -50 -110 -69 -35 -36 -79 -98 -73 -104 3 -3 1 -6
-6 -6 -7 0 -9 -4 -6 -10 3 -5 2 -10 -3 -10 -8 0 -16 -16 -34 -70 -20 -57 -29
-74 -39 -72 -9 2 -9 -1 1 -12 10 -13 10 -16 -4 -16 -11 0 -16 9 -16 26 0 14
-4 23 -10 19 -9 -5 -15 15 -11 38 0 4 -3 7 -8 7 -5 0 -21 21 -36 47 -36 63
-110 133 -140 133 -13 0 -37 -12 -55 -26 -24 -20 -28 -29 -19 -40 6 -7 8 -18
4 -24 -3 -5 -2 -10 4 -10 13 0 51 -63 51 -85 0 -33 -15 -3 -19 38 -1 4 -6 7
-12 7 -6 0 -8 -7 -5 -17 6 -15 5 -15 -13 1 -11 10 -17 24 -14 32 3 8 0 14 -6
14 -6 0 -11 7 -11 15 0 8 -5 15 -12 15 -6 0 -9 3 -5 6 6 7 -21 36 -56 59 -54
35 -133 13 -159 -45 -12 -27 -14 -28 -30 -13 -10 9 -18 20 -18 25 0 13 -72 83
-115 111 -63 40 -180 65 -217 46 -10 -6 -19 -5 -23 1 -4 6 -11 8 -16 5 -5 -4
-13 4 -18 17 -11 25 -80 278 -87 318 -3 14 -7 32 -9 40 -17 58 -26 242 -16
308 6 34 9 36 86 63 215 74 284 108 365 177 100 85 156 210 146 325 -3 37 -4
67 -1 67 3 0 22 -7 42 -15 19 -8 42 -15 49 -15 21 0 17 31 -7 57 -43 44 -25
156 26 169 11 3 30 6 43 7 28 2 28 11 -1 34 -34 27 -49 59 -49 108 0 75 53
137 118 139 46 1 45 17 -4 44 -78 44 -203 36 -295 -18 l-33 -20 -18 90 c-10
49 -18 93 -18 97 1 5 25 22 56 38 158 87 178 142 82 230 l-54 50 -6 80 c-23
307 -227 589 -529 730 -80 38 -228 83 -282 87 -19 1 -35 5 -35 9 0 16 -70 49
-123 57 -31 5 -58 8 -59 7z m-838 -2180 c2 -40 170 -201 268 -256 74 -41 80
-47 58 -53 -72 -18 -99 -79 -76 -169 14 -53 67 -143 92 -154 17 -8 17 -9 -4
-34 -23 -26 -23 -26 -63 -9 -46 20 -154 130 -215 220 -37 54 -76 133 -135 268
-23 54 -98 122 -134 122 -21 0 -12 8 44 43 120 75 127 77 147 53 10 -12 18
-25 18 -31z m-33 -1010 c79 -24 91 -31 83 -45 -6 -11 -19 -16 -34 -15 -14 2
-44 -2 -68 -7 -24 -6 -58 -10 -77 -9 -18 1 -50 -4 -70 -11 -20 -7 -38 -13 -41
-13 -13 -3 -81 -35 -92 -44 -57 -45 -99 -86 -120 -118 -50 -76 -62 -98 -60
-107 2 -5 -5 -6 -14 -2 -14 5 -15 4 -5 -8 7 -9 8 -17 2 -20 -10 -6 -37 61 -32
79 1 5 0 7 -4 3 -4 -4 -18 6 -31 21 -13 16 -38 34 -56 41 -18 8 -34 14 -36 15
-9 6 50 113 70 124 94 57 219 104 353 131 103 21 121 20 232 -15z m-984 -50
c34 -7 62 -25 38 -25 -5 0 -27 -19 -48 -42 -21 -22 -46 -49 -55 -60 -10 -10
-18 -21 -19 -25 -1 -5 -10 -24 -21 -43 -10 -19 -17 -27 -14 -17 3 9 0 17 -6
17 -7 0 -3 7 8 15 19 15 19 15 0 8 -15 -5 -18 -3 -13 10 4 10 2 17 -4 17 -6 0
-9 7 -5 15 3 8 2 15 -3 15 -5 0 -22 12 -38 27 l-30 27 46 38 c49 40 63 42 164
23z m198 -109 c5 3 16 -1 24 -9 12 -13 7 -14 -40 -13 -29 0 -51 5 -48 9 3 5
14 7 24 4 13 -4 19 0 20 11 0 11 2 12 6 4 2 -6 9 -10 14 -6z m44 -58 c-7 -17
-68 -23 -63 -6 2 6 15 13 28 15 13 2 26 6 29 8 8 9 12 -2 6 -17z m-71 -3 c-4
-8 -10 -13 -14 -10 -5 3 -11 1 -15 -5 -4 -6 -11 -8 -16 -5 -5 4 -9 1 -9 -5 0
-6 -5 -8 -12 -4 -7 4 2 14 23 24 43 23 50 23 43 5z m626 -67 c0 -15 -5 -18
-21 -13 -14 5 -19 3 -15 -3 3 -6 2 -13 -4 -17 -9 -6 -14 8 -11 28 1 5 -3 6 -8
2 -6 -3 -8 -12 -5 -20 7 -18 -15 -41 -64 -66 -23 -12 -27 -17 -12 -13 23 6 24
6 10 -12 -20 -26 -32 -34 -42 -28 -13 8 2 25 15 18 8 -5 8 -3 0 6 -14 15 -15
13 55 86 32 33 46 41 69 38 15 -2 20 -1 10 2 -9 3 -15 9 -12 14 9 15 35 -1 35
-22z m3344 17 c3 -8 1 -15 -4 -15 -6 0 -10 7 -10 15 0 8 2 15 4 15 2 0 6 -7
10 -15z m-294 -59 c0 -3 -7 -11 -15 -20 -14 -13 -13 -16 5 -26 11 -6 20 -7 20
-2 0 4 9 8 20 8 11 0 20 -4 20 -8 0 -4 -9 -8 -19 -8 -11 0 -23 -5 -26 -11 -5
-6 -12 -4 -20 8 -13 17 -14 17 -9 -3 8 -30 -21 -39 -40 -12 -8 12 -12 26 -9
32 4 5 11 0 16 -12 10 -23 27 -30 27 -12 0 6 -4 10 -10 10 -15 0 -7 22 15 42
21 18 25 21 25 14z m-3521 -43 c7 -14 7 -24 0 -28 -5 -4 -6 -11 -3 -17 5 -7 2
-8 -5 -4 -7 5 -10 15 -7 23 3 8 1 11 -5 8 -5 -4 -7 -14 -5 -23 4 -13 0 -17
-18 -17 -14 0 -23 2 -21 4 2 1 0 14 -5 27 -18 47 48 73 69 27z m3454 -44 c11
-18 -35 -75 -52 -64 -6 3 -11 1 -11 -4 0 -6 4 -11 9 -11 5 0 7 -9 4 -20 -3
-11 -9 -20 -14 -20 -5 0 -5 7 -2 17 4 11 3 14 -5 9 -17 -10 -15 -36 4 -36 8 0
13 -4 9 -10 -3 -5 -13 -7 -23 -4 -16 5 -16 5 1 -6 9 -6 17 -22 17 -35 0 -36
60 -91 93 -86 4 0 7 -4 7 -10 0 -5 5 -7 10 -4 6 3 10 1 10 -4 0 -6 4 -11 10
-11 5 0 7 8 4 18 -5 14 -3 14 10 -2 9 -11 16 -23 16 -26 0 -9 -53 -6 -69 4 -9
6 -12 5 -7 -2 3 -6 2 -13 -4 -17 -5 -3 -10 -1 -10 4 0 6 -9 11 -20 11 -11 0
-20 5 -20 10 0 6 -5 10 -11 10 -6 0 -17 7 -25 15 -9 8 -12 15 -8 15 4 0 -1 7
-12 15 -19 14 -19 14 1 15 16 0 17 2 5 9 -8 6 -19 7 -25 3 -5 -3 -5 1 2 9 7 9
8 20 3 29 -5 7 -4 24 1 38 5 14 7 27 5 30 -3 2 2 11 10 19 8 8 12 19 9 24 -4
5 -1 9 4 9 6 0 10 3 9 8 -3 15 15 42 27 42 8 0 17 5 21 12 4 7 3 8 -4 4 -7 -4
-12 -2 -12 4 0 15 21 8 33 -11z m367 -4 c-7 -9 -15 -13 -17 -11 -7 7 7 26 19
26 6 0 6 -6 -2 -15z m-3500 -27 c0 -11 -29 -23 -36 -15 -3 3 -4 10 0 15 7 11
36 11 36 0z m2101 -2 c-6 -7 -7 -16 -3 -21 4 -4 0 -6 -8 -3 -24 7 -23 33 0 35
17 1 19 -1 11 -11z m-1 -33 c14 1 16 4 8 14 -8 10 -6 13 5 13 8 0 17 -6 20
-12 5 -18 -3 -48 -14 -48 -5 0 -10 -17 -10 -37 l-2 -38 -7 35 c-4 19 -8 29 -9
23 0 -7 -6 -13 -12 -13 -6 0 -8 7 -5 16 5 14 4 15 -9 4 -8 -7 -16 -10 -16 -6
-1 3 -2 10 -3 15 0 5 -4 13 -8 17 -4 4 -4 12 0 18 4 6 7 14 8 19 1 4 2 10 3
14 0 4 8 -2 16 -14 8 -12 24 -21 35 -20z m-2907 -10 c-5 -12 -3 -14 8 -8 11 7
12 6 3 -6 -7 -8 -8 -22 -3 -34 13 -34 15 -33 -46 -37 -14 -1 -25 -6 -25 -11 0
-4 -4 -6 -9 -2 -6 3 -14 -3 -20 -12 -10 -17 -10 -17 -11 0 0 9 -1 20 -2 25 -2
4 9 7 24 8 15 1 34 7 43 14 11 9 15 9 15 1 0 -7 5 -9 11 -5 8 4 7 9 -2 15 -8
5 -23 2 -36 -7 -26 -16 -30 -10 -9 11 7 8 16 11 20 8 3 -4 6 2 6 13 0 16 2 17
10 4 8 -12 10 -9 10 13 0 15 4 27 10 27 5 0 6 -7 3 -17z m4442 -93 c3 -6 -1
-7 -9 -4 -18 7 -21 14 -7 14 6 0 13 -4 16 -10z m-4555 -20 c0 -5 -15 -12 -32
-16 -44 -10 -98 -12 -92 -3 2 4 12 6 22 4 9 -1 22 2 29 7 7 5 17 7 23 3 5 -3
10 -2 10 4 0 6 7 7 17 4 12 -5 14 -3 8 7 -5 9 -4 11 3 6 7 -4 12 -11 12 -16z
m4297 -42 c-18 -12 -23 -10 -24 12 -1 17 1 18 17 8 14 -9 16 -14 7 -20z m-30
-9 c2 -17 -1 -18 -13 -8 -12 10 -13 9 -8 -6 5 -13 4 -16 -4 -11 -8 4 -12 0
-12 -11 0 -15 -2 -16 -10 -3 -5 8 -10 11 -10 5 0 -12 -47 -35 -55 -27 -3 3 -5
12 -5 21 0 14 2 14 10 1 9 -13 10 -13 10 0 0 8 9 21 21 28 12 8 18 9 14 3 -11
-19 10 -12 28 9 22 26 32 25 34 -1z m-943 -5 c3 -8 2 -12 -4 -9 -6 3 -10 10
-10 16 0 14 7 11 14 -7z m-170 -59 c-9 -6 -14 -17 -10 -23 4 -7 3 -12 -3 -12
-18 0 -21 17 -6 30 8 7 12 16 9 21 -3 5 2 6 11 3 14 -6 14 -8 -1 -19z m-2459
-105 c3 -5 1 -10 -4 -10 -6 0 -11 5 -11 10 0 6 2 10 4 10 3 0 8 -4 11 -10z
m1879 -97 c-11 -51 -38 -123 -46 -123 -4 0 -15 14 -23 30 -15 30 -15 31 20 68
19 20 35 40 35 45 0 4 5 7 10 7 6 0 8 -12 4 -27z"/>
<path d="M1457 1565 c-8 -8 -18 -11 -22 -7 -5 4 -5 1 -1 -6 6 -11 12 -10 27 4
10 9 19 19 19 21 0 7 -9 2 -23 -12z"/>
<path d="M1019 1523 c-13 -17 -13 -17 6 -3 11 8 22 16 24 17 2 2 0 3 -6 3 -6
0 -17 -8 -24 -17z"/>
<path d="M1030 1500 c-6 -11 -8 -20 -6 -20 3 0 10 9 16 20 6 11 8 20 6 20 -3
0 -10 -9 -16 -20z"/>
<path d="M4515 1460 c-4 -6 -10 -8 -15 -5 -4 3 -14 -3 -21 -13 -12 -15 -12
-16 2 -5 9 7 18 11 21 8 3 -3 11 1 18 10 7 8 10 15 7 15 -3 0 -9 -5 -12 -10z"/>
<path d="M4430 1316 c0 -2 7 -9 15 -16 9 -7 15 -8 15 -2 0 5 -7 12 -15 16 -8
3 -15 4 -15 2z"/>
<path d="M3445 1410 c-3 -6 1 -7 9 -4 18 7 21 14 7 14 -6 0 -13 -4 -16 -10z"/>
<path d="M4815 1320 c-3 -5 -1 -10 4 -10 6 0 11 5 11 10 0 6 -2 10 -4 10 -3 0
-8 -4 -11 -10z"/>
<path d="M4993 1175 c-3 -9 -3 -19 1 -22 3 -4 6 2 6 11 0 12 5 16 16 12 8 -3
12 -2 9 4 -9 15 -25 12 -32 -5z"/>
<path d="M4910 1155 c-11 -13 -10 -18 6 -30 10 -8 24 -14 29 -14 6 0 4 3 -3 6
-10 4 -10 10 3 29 8 13 11 24 6 24 -5 0 -13 -9 -16 -20 -4 -11 -11 -18 -16
-14 -6 4 -6 11 2 20 6 8 9 14 6 14 -2 0 -10 -7 -17 -15z"/>
<path d="M4233 1103 c0 -18 5 -33 10 -33 6 0 7 3 4 7 -4 3 1 16 10 27 15 18
15 19 1 8 -14 -11 -17 -10 -21 5 -2 10 -4 3 -4 -14z"/>
<path d="M4875 1120 c-4 -6 -3 -9 2 -8 4 1 18 -3 31 -10 30 -17 28 -8 -2 12
-16 10 -27 12 -31 6z"/>
<path d="M4870 1090 c0 -5 5 -10 10 -10 6 0 10 5 10 10 0 6 -4 10 -10 10 -5 0
-10 -4 -10 -10z"/>
<path d="M250 1060 c0 -5 5 -10 11 -10 5 0 7 5 4 10 -3 6 -8 10 -11 10 -2 0
-4 -4 -4 -10z"/>
<path d="M1199 1053 c-13 -16 -12 -17 4 -4 9 7 17 15 17 17 0 8 -8 3 -21 -13z"/>
<path d="M4885 1060 c-3 -6 1 -7 9 -4 18 7 21 14 7 14 -6 0 -13 -4 -16 -10z"/>
<path d="M683 1049 c-6 -6 -9 -19 -5 -28 5 -14 4 -14 -11 -2 -11 9 -17 10 -17
2 0 -6 5 -11 11 -11 5 0 7 -5 4 -10 -4 -6 -10 -8 -15 -5 -5 3 -12 0 -16 -7 -4
-7 -4 -10 1 -6 4 4 14 3 22 -4 7 -6 16 -8 20 -4 3 3 0 6 -7 6 -9 0 -8 6 5 20
10 11 15 23 12 27 -4 3 -2 12 4 20 14 16 7 17 -8 2z"/>
<path d="M3526 1045 c7 -18 32 -27 40 -13 4 7 3 8 -4 4 -7 -4 -12 -3 -12 2 0
6 -7 12 -14 15 -10 4 -13 1 -10 -8z"/>
<path d="M3852 1053 c-6 -2 -10 -9 -6 -14 8 -14 21 -11 21 6 0 8 -1 15 -1 14
-1 0 -7 -3 -14 -6z"/>
<path d="M3503 1029 c-2 -23 3 -25 10 -4 4 8 3 16 -1 19 -4 3 -9 -4 -9 -15z"/>
<path d="M3585 1040 c-3 -6 1 -7 9 -4 18 7 21 14 7 14 -6 0 -13 -4 -16 -10z"/>
<path d="M4780 1037 c0 -5 7 -7 15 -3 8 3 19 -2 24 -12 6 -9 10 -12 11 -7 0
18 -15 32 -32 32 -10 0 -18 -5 -18 -10z"/>
<path d="M266 1023 c-6 -14 -5 -15 5 -6 7 7 10 15 7 18 -3 3 -9 -2 -12 -12z"/>
<path d="M1136 1021 c-3 -5 2 -15 12 -22 16 -13 16 -13 2 5 -14 18 -13 19 3
13 11 -4 16 -3 12 3 -8 12 -22 13 -29 1z"/>
<path d="M3465 1019 c-5 -8 -4 -10 0 -6 5 4 15 -3 22 -15 7 -13 12 -18 13 -12
0 5 -6 18 -13 29 -12 15 -15 16 -22 4z"/>
<path d="M4143 1015 c-3 -9 -3 -19 1 -22 3 -4 6 1 6 11 0 9 5 14 10 11 6 -4 7
-11 4 -17 -4 -7 -2 -8 4 -4 12 7 5 36 -9 36 -5 0 -12 -7 -16 -15z"/>
<path d="M3826 1008 c3 -4 11 -5 19 -1 21 7 19 12 -4 10 -11 0 -18 -5 -15 -9z"/>
<path d="M4692 999 c-18 -14 -19 -18 -7 -23 8 -3 14 -2 14 2 -3 18 2 26 9 15
6 -9 11 -7 19 6 15 24 -6 24 -35 0z"/>
<path d="M4770 1011 c0 -6 4 -13 10 -16 6 -3 7 1 4 9 -7 18 -14 21 -14 7z"/>
<path d="M4035 1000 c-3 -5 -1 -10 4 -10 6 0 11 5 11 10 0 6 -2 10 -4 10 -3 0
-8 -4 -11 -10z"/>
<path d="M4743 995 c-10 -11 -9 -13 6 -12 11 1 17 7 14 14 -6 16 -5 16 -20 -2z"/>
<path d="M3455 990 c-3 -5 -1 -10 4 -10 6 0 11 5 11 10 0 6 -2 10 -4 10 -3 0
-8 -4 -11 -10z"/>
<path d="M226 981 c-4 -5 3 -7 14 -4 23 6 26 13 6 13 -8 0 -17 -4 -20 -9z"/>
<path d="M1053 975 c-3 -9 -3 -18 -1 -21 3 -3 8 4 11 16 6 23 -1 27 -10 5z"/>
<path d="M3793 971 c0 -11 5 -18 9 -15 4 3 5 11 1 19 -7 21 -12 19 -10 -4z"/>
<path d="M4115 980 c-3 -5 -1 -10 4 -10 6 0 11 5 11 10 0 6 -2 10 -4 10 -3 0
-8 -4 -11 -10z"/>
<path d="M950 965 c-11 -13 -10 -14 4 -9 9 3 16 10 16 15 0 13 -6 11 -20 -6z"/>
<path d="M4057 965 c3 -8 9 -12 14 -9 12 7 11 11 -5 17 -10 4 -13 1 -9 -8z"/>
<path d="M4516 955 c-11 -8 -15 -15 -9 -15 6 0 16 7 23 15 16 19 11 19 -14 0z"/>
<path d="M4555 962 c8 -8 55 -11 55 -3 0 4 -13 8 -30 8 -16 0 -28 -2 -25 -5z"/>
<path d="M590 939 c0 -5 5 -7 11 -3 8 4 9 -1 5 -17 -3 -13 -3 -18 0 -11 3 6
10 9 16 6 6 -4 5 2 -1 15 -12 22 -31 29 -31 10z"/>
<path d="M656 933 c-6 -14 -5 -15 5 -6 7 7 10 15 7 18 -3 3 -9 -2 -12 -12z"/>
<path d="M4593 925 c0 -8 4 -12 9 -9 5 3 6 10 3 15 -9 13 -12 11 -12 -6z"/>
<path d="M494 878 c-4 -7 -4 -10 1 -6 4 4 14 3 22 -4 11 -8 12 -7 7 6 -7 19
-20 21 -30 4z"/>
<path d="M2396 447 c3 -10 9 -15 12 -12 3 3 0 11 -7 18 -10 9 -11 8 -5 -6z"/>
<path d="M2906 362 c-3 -5 1 -9 9 -9 8 0 12 4 9 9 -3 4 -7 8 -9 8 -2 0 -6 -4
-9 -8z"/>
</g>
</svg>
